<?xml version="1.0" encoding="UTF-8"?>
<svg xmlns="http://www.w3.org/2000/svg" xmlns:xlink="http://www.w3.org/1999/xlink" width="375pt" height="374.999991pt" viewBox="0 0 375 374.999991" version="1.2">
<defs>
<clipPath id="clip1">
  <path d="M 69.628906 37.5 L 305.128906 37.5 L 305.128906 132 L 69.628906 132 Z M 69.628906 37.5 "/>
</clipPath>
<clipPath id="clip2">
  <path d="M 75 132 L 299 132 L 299 312.75 L 75 312.75 Z M 75 132 "/>
</clipPath>
<clipPath id="clip3">
  <path d="M 84.015625 54.296875 L 291 54.296875 L 291 137 L 84.015625 137 Z M 84.015625 54.296875 "/>
</clipPath>
<clipPath id="clip4">
  <path d="M 88 137 L 286 137 L 286 295.796875 L 88 295.796875 Z M 88 137 "/>
</clipPath>
</defs>
<g id="surface1">
<g clip-path="url(#clip1)" clip-rule="nonzero">
<path style=" stroke:none;fill-rule:nonzero;fill:rgb(100%,100%,100%);fill-opacity:1;" d="M 78.367188 89.9375 C 73.117188 89.074219 70.253906 87.3125 69.707031 84.683594 C 69.707031 81.191406 72.605469 79.425781 78.367188 79.425781 L 283.066406 79.425781 C 277.160156 75.09375 271.933594 70.050781 267.390625 64.300781 C 262.847656 58.546875 259.152344 52.296875 256.304688 45.539062 L 256.03125 45.265625 C 255.421875 43.917969 254.976562 42.519531 254.699219 41.070312 C 254.699219 38.953125 255.992188 37.894531 258.617188 37.894531 C 260.574219 37.894531 262.023438 39.148438 263.082031 41.578125 C 264.824219 45.695312 266.910156 49.628906 269.339844 53.382812 C 271.765625 57.132812 274.503906 60.644531 277.546875 63.914062 C 280.59375 67.183594 283.898438 70.164062 287.460938 72.855469 C 291.027344 75.546875 294.800781 77.90625 298.78125 79.9375 L 299.054688 79.9375 L 299.328125 80.210938 L 299.601562 80.210938 C 300.777344 80.90625 301.992188 81.519531 303.246094 82.054688 C 303.953125 82.054688 304.578125 82.917969 305.089844 84.683594 C 305.003906 85.378906 304.753906 86.007812 304.332031 86.566406 C 303.914062 87.128906 303.382812 87.546875 302.738281 87.820312 C 302.246094 87.882812 301.800781 88.066406 301.40625 88.371094 C 297.167969 90.351562 293.144531 92.707031 289.335938 95.425781 C 285.527344 98.148438 281.996094 101.191406 278.746094 104.5625 C 275.492188 107.929688 272.574219 111.566406 269.988281 115.46875 C 267.402344 119.371094 265.191406 123.476562 263.359375 127.785156 C 263.105469 128.097656 262.9375 128.453125 262.847656 128.84375 C 262.664062 129.25 262.429688 129.617188 262.136719 129.953125 C 261.84375 130.285156 261.507812 130.570312 261.132812 130.804688 C 260.753906 131.039062 260.351562 131.210938 259.925781 131.324219 C 259.496094 131.441406 259.058594 131.488281 258.617188 131.472656 C 255.992188 131.472656 254.699219 130.414062 254.699219 128.296875 C 254.699219 126.179688 257.246094 120.453125 262.300781 112.609375 C 267.808594 103.792969 274.71875 96.261719 283.027344 90.015625 L 78.367188 90.015625 Z M 78.367188 89.9375 "/>
</g>
<g clip-path="url(#clip2)" clip-rule="nonzero">
<path style=" stroke:none;fill-rule:nonzero;fill:rgb(100%,100%,100%);fill-opacity:1;" d="M 198.9375 206.1875 L 236.242188 292.472656 C 236.625 293.660156 237.125 294.796875 237.75 295.878906 C 238.371094 296.960938 239.097656 297.96875 239.933594 298.898438 C 240.765625 299.828125 241.6875 300.660156 242.695312 301.394531 C 243.707031 302.128906 244.78125 302.75 245.921875 303.257812 L 246.46875 303.257812 C 249.023438 304.042969 251.636719 304.382812 254.304688 304.277344 C 257.792969 304.277344 259.558594 305.257812 259.558594 307.179688 C 259.558594 310.710938 257.988281 312.433594 254.816406 312.433594 L 229.34375 311.652344 L 229.109375 311.652344 L 197.761719 312.433594 L 196.980469 312.433594 C 194.550781 312.433594 193.296875 311.492188 193.296875 309.53125 C 193.429688 308.839844 193.667969 308.183594 194.015625 307.570312 C 194.359375 306.953125 194.792969 306.410156 195.316406 305.933594 C 195.839844 305.460938 196.425781 305.082031 197.070312 304.796875 C 197.71875 304.515625 198.390625 304.339844 199.09375 304.277344 C 208.1875 304.277344 212.730469 301.570312 212.730469 296.160156 C 212.152344 292.929688 211.105469 289.855469 209.597656 286.941406 L 179.148438 216.34375 L 139.964844 246.820312 C 135.027344 267.292969 131.578125 280.992188 129.621094 287.921875 C 128.054688 295.765625 127.269531 299.6875 127.269531 299.492188 C 127.269531 302.472656 131.1875 304.042969 139.339844 304.199219 L 144.355469 304.199219 C 148.898438 304.199219 151.328125 305.179688 151.679688 307.101562 C 151.734375 307.457031 151.746094 307.816406 151.714844 308.175781 C 151.683594 308.535156 151.609375 308.886719 151.496094 309.230469 C 151.382812 309.574219 151.234375 309.898438 151.042969 310.207031 C 150.855469 310.515625 150.632812 310.796875 150.375 311.050781 C 150.121094 311.304688 149.839844 311.527344 149.535156 311.71875 C 149.226562 311.90625 148.902344 312.058594 148.558594 312.171875 C 148.214844 312.285156 147.863281 312.359375 147.503906 312.390625 C 147.144531 312.421875 146.789062 312.410156 146.429688 312.355469 L 129.621094 311.847656 L 129.308594 311.847656 L 113.007812 311.574219 L 112.496094 311.574219 L 79.425781 312.355469 L 79.152344 312.355469 C 76.523438 312.355469 75.230469 311.296875 75.230469 309.21875 C 75.195312 308.914062 75.1875 308.605469 75.210938 308.300781 C 75.238281 307.992188 75.292969 307.691406 75.382812 307.394531 C 75.46875 307.097656 75.585938 306.816406 75.734375 306.542969 C 75.878906 306.273438 76.050781 306.019531 76.25 305.78125 C 76.449219 305.546875 76.671875 305.332031 76.914062 305.144531 C 77.15625 304.953125 77.414062 304.789062 77.691406 304.65625 C 77.96875 304.519531 78.253906 304.410156 78.554688 304.335938 C 78.851562 304.257812 79.15625 304.214844 79.464844 304.199219 L 82.597656 304.199219 C 93.960938 304.199219 100.820312 302.984375 103.09375 300.550781 C 104.582031 298.28125 105.625 295.824219 106.226562 293.179688 C 106.273438 292.738281 106.363281 292.304688 106.5 291.882812 L 141.765625 150.691406 C 142.21875 149.039062 142.558594 147.367188 142.785156 145.671875 C 142.785156 143.589844 141.414062 142.257812 138.59375 141.75 L 138.320312 141.75 C 137.910156 141.542969 137.480469 141.453125 137.027344 141.472656 C 132.832031 141.121094 129.1875 140.964844 125.742188 140.964844 C 121.195312 140.964844 118.726562 140.257812 118.375 138.847656 C 118.21875 138.511719 118.140625 138.15625 118.140625 137.789062 C 118.140625 134.492188 119.863281 132.804688 123.390625 132.804688 L 156.972656 133.589844 L 157.246094 133.589844 L 190.589844 132.804688 L 190.828125 132.804688 C 193.296875 132.804688 194.511719 133.785156 194.511719 135.707031 C 194.511719 138.6875 193.21875 140.335938 190.589844 140.691406 C 188.929688 140.929688 187.257812 141.019531 185.574219 140.964844 C 174.917969 140.964844 168.53125 142.375 166.414062 145.160156 C 165.054688 147.628906 164.101562 150.242188 163.554688 153.003906 L 142.511719 237.484375 L 244.902344 158.652344 C 251.171875 153.398438 254.34375 149.355469 254.34375 146.535156 C 254.34375 143.710938 251.992188 141.75 247.253906 141.042969 L 246.195312 141.042969 C 244.117188 140.691406 243.058594 139.710938 243.058594 138.140625 C 243.058594 134.648438 244.707031 132.882812 248.035156 132.882812 L 276.914062 133.667969 L 277.191406 133.667969 L 295.566406 132.882812 L 295.800781 132.882812 C 296 132.855469 296.199219 132.847656 296.398438 132.863281 C 296.59375 132.882812 296.789062 132.921875 296.980469 132.984375 C 297.167969 133.046875 297.347656 133.128906 297.519531 133.234375 C 297.6875 133.339844 297.84375 133.460938 297.984375 133.601562 C 298.125 133.742188 298.25 133.898438 298.351562 134.070312 C 298.457031 134.238281 298.542969 134.417969 298.605469 134.609375 C 298.664062 134.800781 298.707031 134.992188 298.722656 135.191406 C 298.738281 135.390625 298.730469 135.589844 298.703125 135.785156 C 298.722656 136.121094 298.710938 136.449219 298.664062 136.78125 C 298.621094 137.109375 298.542969 137.433594 298.429688 137.746094 C 298.320312 138.0625 298.179688 138.363281 298.007812 138.648438 C 297.835938 138.933594 297.636719 139.199219 297.414062 139.445312 C 297.1875 139.6875 296.941406 139.910156 296.671875 140.105469 C 296.402344 140.300781 296.113281 140.464844 295.8125 140.605469 C 295.507812 140.742188 295.195312 140.847656 294.867188 140.921875 C 294.542969 140.996094 294.214844 141.035156 293.882812 141.042969 C 288.34375 141.828125 282.960938 143.214844 277.730469 145.199219 C 272.5 147.183594 267.554688 149.722656 262.886719 152.808594 C 259.203125 155.082031 255.285156 157.828125 251.132812 160.964844 L 205.207031 196.265625 C 202.445312 198.003906 199.910156 200.03125 197.605469 202.34375 Z M 198.9375 206.1875 "/>
</g>
<path style=" stroke:none;fill-rule:nonzero;fill:rgb(0%,0%,0%);fill-opacity:1;" d="M 187.5 0 C 184.429688 0 181.363281 0.0742188 178.300781 0.226562 C 175.234375 0.375 172.175781 0.601562 169.121094 0.902344 C 166.066406 1.203125 163.023438 1.578125 159.988281 2.03125 C 156.953125 2.480469 153.929688 3.003906 150.921875 3.601562 C 147.910156 4.203125 144.917969 4.875 141.941406 5.617188 C 138.964844 6.363281 136.007812 7.183594 133.070312 8.074219 C 130.136719 8.964844 127.222656 9.925781 124.332031 10.960938 C 121.445312 11.996094 118.582031 13.097656 115.746094 14.273438 C 112.910156 15.445312 110.105469 16.691406 107.332031 18.003906 C 104.558594 19.3125 101.820312 20.691406 99.113281 22.140625 C 96.40625 23.585938 93.738281 25.097656 91.105469 26.675781 C 88.472656 28.253906 85.882812 29.894531 83.332031 31.597656 C 80.777344 33.304688 78.269531 35.070312 75.804688 36.898438 C 73.339844 38.726562 70.921875 40.613281 68.550781 42.558594 C 66.179688 44.507812 63.855469 46.511719 61.582031 48.570312 C 59.308594 50.632812 57.085938 52.746094 54.917969 54.917969 C 52.746094 57.085938 50.632812 59.308594 48.570312 61.582031 C 46.511719 63.855469 44.507812 66.179688 42.558594 68.550781 C 40.613281 70.921875 38.726562 73.339844 36.898438 75.804688 C 35.070312 78.269531 33.304688 80.777344 31.597656 83.332031 C 29.894531 85.882812 28.253906 88.472656 26.675781 91.105469 C 25.097656 93.738281 23.585938 96.40625 22.140625 99.113281 C 20.691406 101.820312 19.3125 104.558594 18.003906 107.332031 C 16.691406 110.105469 15.445312 112.910156 14.273438 115.746094 C 13.097656 118.582031 11.996094 121.445312 10.960938 124.332031 C 9.925781 127.222656 8.964844 130.136719 8.074219 133.070312 C 7.183594 136.007812 6.363281 138.964844 5.621094 141.941406 C 4.875 144.917969 4.203125 147.910156 3.601562 150.921875 C 3.003906 153.929688 2.480469 156.953125 2.03125 159.988281 C 1.578125 163.023438 1.203125 166.066406 0.902344 169.121094 C 0.601562 172.175781 0.375 175.234375 0.226562 178.300781 C 0.0742188 181.363281 0 184.429688 0 187.5 C 0 190.570312 0.0742188 193.636719 0.226562 196.699219 C 0.375 199.765625 0.601562 202.824219 0.902344 205.878906 C 1.203125 208.933594 1.578125 211.976562 2.03125 215.011719 C 2.480469 218.046875 3.003906 221.070312 3.601562 224.078125 C 4.203125 227.089844 4.875 230.082031 5.621094 233.058594 C 6.363281 236.035156 7.183594 238.992188 8.074219 241.929688 C 8.964844 244.863281 9.925781 247.777344 10.960938 250.667969 C 11.996094 253.554688 13.097656 256.417969 14.273438 259.253906 C 15.445312 262.089844 16.691406 264.890625 18.003906 267.667969 C 19.3125 270.441406 20.691406 273.179688 22.140625 275.886719 C 23.585938 278.59375 25.097656 281.261719 26.675781 283.894531 C 28.253906 286.527344 29.894531 289.117188 31.597656 291.667969 C 33.304688 294.222656 35.070312 296.730469 36.898438 299.195312 C 38.726562 301.660156 40.613281 304.078125 42.558594 306.449219 C 44.507812 308.820312 46.511719 311.144531 48.570312 313.417969 C 50.632812 315.691406 52.746094 317.914062 54.917969 320.082031 C 57.085938 322.253906 59.308594 324.367188 61.582031 326.429688 C 63.855469 328.488281 66.179688 330.492188 68.550781 332.4375 C 70.921875 334.386719 73.339844 336.273438 75.804688 338.101562 C 78.269531 339.929688 80.777344 341.695312 83.332031 343.402344 C 85.882812 345.105469 88.472656 346.746094 91.105469 348.324219 C 93.738281 349.902344 96.40625 351.414062 99.113281 352.859375 C 101.820312 354.308594 104.558594 355.6875 107.332031 356.996094 C 110.105469 358.308594 112.910156 359.554688 115.746094 360.726562 C 118.582031 361.902344 121.445312 363.003906 124.332031 364.039062 C 127.222656 365.074219 130.136719 366.035156 133.070312 366.925781 C 136.007812 367.816406 138.964844 368.636719 141.941406 369.378906 C 144.917969 370.125 147.910156 370.796875 150.921875 371.398438 C 153.929688 371.996094 156.953125 372.519531 159.988281 372.96875 C 163.023438 373.421875 166.066406 373.796875 169.121094 374.097656 C 172.175781 374.398438 175.234375 374.625 178.300781 374.773438 C 181.363281 374.925781 184.429688 375 187.5 375 C 190.570312 375 193.636719 374.925781 196.699219 374.773438 C 199.765625 374.625 202.824219 374.398438 205.878906 374.097656 C 208.933594 373.796875 211.976562 373.421875 215.011719 372.96875 C 218.046875 372.519531 221.070312 371.996094 224.078125 371.398438 C 227.089844 370.796875 230.082031 370.125 233.058594 369.378906 C 236.035156 368.636719 238.992188 367.816406 241.929688 366.925781 C 244.863281 366.035156 247.777344 365.074219 250.667969 364.039062 C 253.554688 363.003906 256.417969 361.902344 259.253906 360.726562 C 262.089844 359.554688 264.890625 358.308594 267.667969 356.996094 C 270.441406 355.6875 273.179688 354.308594 275.886719 352.859375 C 278.59375 351.414062 281.261719 349.902344 283.894531 348.324219 C 286.527344 346.746094 289.117188 345.105469 291.667969 343.402344 C 294.222656 341.695312 296.730469 339.929688 299.195312 338.101562 C 301.660156 336.273438 304.078125 334.386719 306.449219 332.4375 C 308.820312 330.492188 311.144531 328.488281 313.417969 326.429688 C 315.691406 324.367188 317.914062 322.253906 320.082031 320.082031 C 322.253906 317.914062 324.367188 315.691406 326.429688 313.417969 C 328.488281 311.144531 330.492188 308.820312 332.4375 306.449219 C 334.386719 304.078125 336.273438 301.660156 338.101562 299.195312 C 339.929688 296.730469 341.695312 294.222656 343.402344 291.667969 C 345.105469 289.117188 346.746094 286.527344 348.324219 283.894531 C 349.902344 281.261719 351.414062 278.59375 352.859375 275.886719 C 354.308594 273.179688 355.6875 270.441406 356.996094 267.667969 C 358.308594 264.890625 359.554688 262.089844 360.726562 259.253906 C 361.902344 256.417969 363.003906 253.554688 364.039062 250.667969 C 365.074219 247.777344 366.035156 244.863281 366.925781 241.929688 C 367.816406 238.992188 368.636719 236.035156 369.378906 233.058594 C 370.125 230.082031 370.796875 227.089844 371.398438 224.078125 C 371.996094 221.070312 372.519531 218.046875 372.96875 215.011719 C 373.421875 211.976562 373.796875 208.933594 374.097656 205.878906 C 374.398438 202.824219 374.625 199.765625 374.773438 196.699219 C 374.925781 193.636719 375 190.570312 375 187.5 C 375 184.429688 374.925781 181.363281 374.773438 178.300781 C 374.625 175.234375 374.398438 172.175781 374.097656 169.121094 C 373.796875 166.066406 373.421875 163.023438 372.96875 159.988281 C 372.519531 156.953125 371.996094 153.929688 371.398438 150.921875 C 370.796875 147.910156 370.125 144.917969 369.378906 141.941406 C 368.636719 138.964844 367.816406 136.007812 366.925781 133.070312 C 366.035156 130.136719 365.074219 127.222656 364.039062 124.332031 C 363.003906 121.445312 361.902344 118.582031 360.726562 115.746094 C 359.554688 112.910156 358.308594 110.105469 356.996094 107.332031 C 355.6875 104.558594 354.308594 101.820312 352.859375 99.113281 C 351.414062 96.40625 349.902344 93.738281 348.324219 91.105469 C 346.746094 88.472656 345.105469 85.882812 343.402344 83.332031 C 341.695312 80.777344 339.929688 78.269531 338.101562 75.804688 C 336.273438 73.339844 334.386719 70.921875 332.4375 68.550781 C 330.492188 66.179688 328.488281 63.855469 326.429688 61.582031 C 324.367188 59.308594 322.253906 57.085938 320.082031 54.917969 C 317.914062 52.746094 315.691406 50.632812 313.417969 48.570312 C 311.144531 46.511719 308.820312 44.507812 306.449219 42.558594 C 304.078125 40.613281 301.660156 38.726562 299.195312 36.898438 C 296.730469 35.070312 294.222656 33.304688 291.667969 31.597656 C 289.117188 29.894531 286.527344 28.253906 283.894531 26.675781 C 281.261719 25.097656 278.59375 23.585938 275.886719 22.140625 C 273.179688 20.691406 270.441406 19.3125 267.667969 18.003906 C 264.890625 16.691406 262.089844 15.445312 259.253906 14.273438 C 256.417969 13.097656 253.554688 11.996094 250.667969 10.960938 C 247.777344 9.925781 244.863281 8.964844 241.929688 8.074219 C 238.992188 7.183594 236.035156 6.363281 233.058594 5.617188 C 230.082031 4.875 227.089844 4.203125 224.078125 3.601562 C 221.070312 3.003906 218.046875 2.480469 215.011719 2.03125 C 211.976562 1.578125 208.933594 1.203125 205.878906 0.902344 C 202.824219 0.601562 199.765625 0.375 196.699219 0.226562 C 193.636719 0.0742188 190.570312 0 187.5 0 Z M 187.5 0 "/>
<g clip-path="url(#clip3)" clip-rule="nonzero">
<path style=" stroke:none;fill-rule:nonzero;fill:rgb(100%,100%,100%);fill-opacity:1;" d="M 91.695312 100.304688 C 87.078125 99.550781 84.566406 98 84.082031 95.695312 C 84.082031 92.632812 86.632812 91.085938 91.695312 91.085938 L 271.625 91.085938 C 266.429688 87.28125 261.835938 82.859375 257.84375 77.8125 C 253.851562 72.765625 250.601562 67.277344 248.097656 61.351562 L 247.859375 61.113281 C 247.324219 59.929688 246.933594 58.703125 246.6875 57.429688 C 246.6875 55.570312 247.824219 54.640625 250.132812 54.640625 C 251.851562 54.640625 253.128906 55.742188 254.058594 57.878906 C 255.585938 61.488281 257.421875 64.941406 259.554688 68.230469 C 261.691406 71.523438 264.097656 74.601562 266.773438 77.472656 C 269.445312 80.34375 272.351562 82.957031 275.488281 85.320312 C 278.621094 87.679688 281.9375 89.75 285.433594 91.53125 L 285.675781 91.53125 L 285.917969 91.773438 L 286.15625 91.773438 C 287.191406 92.378906 288.257812 92.917969 289.359375 93.390625 C 289.980469 93.390625 290.53125 94.148438 290.980469 95.695312 C 290.90625 96.304688 290.683594 96.855469 290.316406 97.347656 C 289.945312 97.839844 289.480469 98.207031 288.914062 98.449219 C 288.480469 98.503906 288.089844 98.664062 287.742188 98.929688 C 284.015625 100.671875 280.480469 102.734375 277.132812 105.121094 C 273.785156 107.507812 270.679688 110.179688 267.824219 113.136719 C 264.964844 116.089844 262.398438 119.28125 260.128906 122.707031 C 257.855469 126.132812 255.910156 129.734375 254.296875 133.515625 C 254.078125 133.789062 253.929688 134.097656 253.851562 134.441406 C 253.691406 134.796875 253.480469 135.121094 253.226562 135.414062 C 252.96875 135.707031 252.671875 135.957031 252.34375 136.160156 C 252.011719 136.367188 251.65625 136.519531 251.28125 136.621094 C 250.902344 136.71875 250.519531 136.761719 250.132812 136.75 C 247.824219 136.75 246.6875 135.820312 246.6875 133.960938 C 246.6875 132.101562 248.925781 127.078125 253.367188 120.195312 C 258.210938 112.460938 264.285156 105.855469 271.589844 100.375 L 91.695312 100.375 Z M 91.695312 100.304688 "/>
</g>
<g clip-path="url(#clip4)" clip-rule="nonzero">
<path style=" stroke:none;fill-rule:nonzero;fill:rgb(100%,100%,100%);fill-opacity:1;" d="M 197.675781 202.304688 L 230.464844 278.007812 C 230.800781 279.050781 231.242188 280.046875 231.789062 281 C 232.335938 281.949219 232.976562 282.832031 233.707031 283.648438 C 234.441406 284.460938 235.25 285.191406 236.136719 285.835938 C 237.023438 286.480469 237.96875 287.027344 238.972656 287.472656 L 239.453125 287.472656 C 241.699219 288.160156 243.996094 288.460938 246.34375 288.367188 C 249.40625 288.367188 250.957031 289.226562 250.957031 290.914062 C 250.957031 294.011719 249.578125 295.523438 246.789062 295.523438 L 224.402344 294.835938 L 224.195312 294.835938 L 196.640625 295.523438 L 195.953125 295.523438 C 193.816406 295.523438 192.714844 294.699219 192.714844 292.976562 C 192.832031 292.371094 193.042969 291.792969 193.347656 291.253906 C 193.652344 290.714844 194.03125 290.238281 194.492188 289.820312 C 194.953125 289.40625 195.464844 289.074219 196.035156 288.824219 C 196.601562 288.574219 197.195312 288.421875 197.8125 288.367188 C 205.804688 288.367188 209.796875 285.992188 209.796875 281.242188 C 209.289062 278.410156 208.371094 275.714844 207.042969 273.15625 L 180.28125 211.214844 L 145.839844 237.953125 C 141.5 255.917969 138.46875 267.9375 136.746094 274.015625 C 135.367188 280.898438 134.679688 284.339844 134.679688 284.167969 C 134.679688 286.785156 138.125 288.160156 145.289062 288.296875 L 149.695312 288.296875 C 153.691406 288.296875 155.828125 289.15625 156.136719 290.84375 C 156.183594 291.15625 156.191406 291.472656 156.164062 291.789062 C 156.136719 292.105469 156.074219 292.410156 155.976562 292.714844 C 155.875 293.015625 155.742188 293.300781 155.578125 293.570312 C 155.410156 293.839844 155.214844 294.085938 154.992188 294.308594 C 154.765625 294.535156 154.519531 294.730469 154.25 294.894531 C 153.980469 295.0625 153.695312 295.195312 153.390625 295.292969 C 153.089844 295.394531 152.78125 295.457031 152.464844 295.484375 C 152.152344 295.511719 151.835938 295.5 151.523438 295.457031 L 136.746094 295.007812 L 136.46875 295.007812 L 122.140625 294.765625 L 121.695312 294.765625 L 92.625 295.457031 L 92.382812 295.457031 C 90.078125 295.457031 88.941406 294.527344 88.941406 292.703125 C 88.90625 292.433594 88.902344 292.164062 88.921875 291.894531 C 88.945312 291.625 88.996094 291.359375 89.070312 291.101562 C 89.148438 290.839844 89.25 290.59375 89.378906 290.355469 C 89.507812 290.117188 89.660156 289.894531 89.835938 289.6875 C 90.007812 289.480469 90.203125 289.292969 90.417969 289.125 C 90.628906 288.960938 90.859375 288.816406 91.101562 288.695312 C 91.34375 288.578125 91.597656 288.484375 91.859375 288.417969 C 92.121094 288.347656 92.390625 288.308594 92.660156 288.296875 L 95.414062 288.296875 C 105.402344 288.296875 111.429688 287.230469 113.429688 285.097656 C 114.738281 283.105469 115.65625 280.949219 116.183594 278.628906 C 116.222656 278.242188 116.304688 277.863281 116.425781 277.492188 L 147.421875 153.609375 C 147.820312 152.160156 148.117188 150.695312 148.320312 149.207031 C 148.320312 147.382812 147.113281 146.210938 144.632812 145.765625 L 144.390625 145.765625 C 144.035156 145.585938 143.65625 145.503906 143.253906 145.523438 C 139.570312 145.214844 136.367188 145.078125 133.335938 145.078125 C 129.339844 145.078125 127.171875 144.457031 126.859375 143.21875 C 126.726562 142.921875 126.65625 142.613281 126.65625 142.289062 C 126.65625 139.398438 128.167969 137.917969 131.269531 137.917969 L 160.785156 138.605469 L 161.027344 138.605469 L 190.339844 137.917969 L 190.546875 137.917969 C 192.714844 137.917969 193.78125 138.777344 193.78125 140.464844 C 193.78125 143.082031 192.644531 144.527344 190.339844 144.835938 C 188.875 145.046875 187.40625 145.125 185.929688 145.078125 C 176.5625 145.078125 170.949219 146.316406 169.085938 148.757812 C 167.894531 150.921875 167.054688 153.214844 166.574219 155.640625 L 148.078125 229.761719 L 238.074219 160.597656 C 243.585938 155.984375 246.375 152.441406 246.375 149.960938 C 246.375 147.484375 244.308594 145.765625 240.144531 145.144531 L 239.210938 145.144531 C 237.386719 144.835938 236.457031 143.976562 236.457031 142.597656 C 236.457031 139.535156 237.902344 137.988281 240.832031 137.988281 L 266.214844 138.675781 L 266.457031 138.675781 L 282.609375 137.988281 L 282.816406 137.988281 C 282.992188 137.960938 283.164062 137.957031 283.339844 137.96875 C 283.515625 137.984375 283.683594 138.019531 283.851562 138.074219 C 284.019531 138.128906 284.175781 138.203125 284.324219 138.292969 C 284.476562 138.386719 284.613281 138.492188 284.734375 138.617188 C 284.859375 138.742188 284.96875 138.878906 285.058594 139.027344 C 285.152344 139.175781 285.222656 139.335938 285.277344 139.5 C 285.332031 139.667969 285.367188 139.835938 285.382812 140.011719 C 285.398438 140.1875 285.390625 140.359375 285.367188 140.535156 C 285.382812 140.824219 285.375 141.117188 285.332031 141.40625 C 285.292969 141.695312 285.222656 141.976562 285.128906 142.253906 C 285.03125 142.53125 284.90625 142.792969 284.753906 143.042969 C 284.605469 143.292969 284.429688 143.527344 284.230469 143.742188 C 284.035156 143.957031 283.816406 144.152344 283.578125 144.324219 C 283.34375 144.492188 283.089844 144.640625 282.824219 144.761719 C 282.558594 144.882812 282.28125 144.972656 281.996094 145.039062 C 281.710938 145.101562 281.421875 145.140625 281.128906 145.144531 C 276.261719 145.835938 271.53125 147.050781 266.933594 148.792969 C 262.335938 150.535156 257.988281 152.757812 253.886719 155.46875 C 250.648438 157.464844 247.203125 159.875 243.550781 162.625 L 203.1875 193.597656 C 200.757812 195.121094 198.527344 196.898438 196.503906 198.929688 Z M 197.675781 202.304688 "/>
</g>
</g>
</svg>
